<?xml version="1.0" encoding="UTF-8"?><svg id="Capa_1" xmlns="http://www.w3.org/2000/svg" viewBox="0 0 347.379 347.379"><path d="m286.1894,86.1895h0c-.0677,0-.1343.0046-.2019.0051l.0051-.0051c-13.6985,0-24.8032-11.1047-24.8032-24.8032l-.0051.0051c.0005-.0676.0051-.1342.0051-.202h0c0-13.8071-11.1929-25-25-25h-125c-13.8071,0-25,11.1929-25,24.9999h0c0,.0678.0046.1344.0051.202l-.0051-.0051c0,13.6984-11.1047,24.8032-24.8032,24.8032l.0051.0051c-.0676-.0005-.1342-.0051-.2019-.0051h0c-13.8071,0-25,11.1929-25,24.9999v125.0001c0,13.8071,11.1929,25,25,25h0c.0677,0,.1343-.0046.2019-.0051l-.0051.0051c13.6985,0,24.8032,11.1047,24.8032,24.8031l.0051-.0052c-.0005.0676-.0051.1343-.0051.2021,0,13.8071,11.1929,25,25,25h125c13.8071,0,25-11.1929,25-25,0-.0677-.0046-.1343-.0051-.2019l.0051.0051c0-13.6984,11.1047-24.8032,24.8032-24.8032l-.0052-.0052c.0676.0005.1343.0051.202.0051h0c13.8071,0,25-11.1929,25-25v-125.0001c0-13.8071-11.1929-24.9999-25-24.9999Zm-25,150.1968c0,13.6984-11.1047,24.8032-24.8031,24.8032l.0051.0051c-.0676-.0005-.1343-.0051-.202-.0051h-125c-.0677,0-.1344.0046-.202.0051l.0051-.0051c-13.6984,0-24.8031-11.1047-24.8031-24.8032l-.0051.0051c.0005-.0676.0051-.1342.0051-.202v-125.0001c0-.0677-.0046-.1343-.0051-.2018l.0051.0051c0-13.6984,11.1047-24.8032,24.8031-24.8032l-.0052-.0052c.0676.0005.1344.0051.2021.0051h125c.0677,0,.1343-.0046.2019-.0051l-.0051.0051c13.6985,0,24.8032,11.1047,24.8032,24.8031l.0051-.0052c-.0005.0676-.0051.1343-.0051.202v125.0001c0,.0677.0046.1343.0051.202l-.0051-.0051Z" fill="#161615" stroke-width="0"/><path d="m236.1895,26.1895c19.2988,0,35,15.7012,35,35v.1973c0,8.1621,6.6406,14.8027,14.8027,14.8027h.1973c19.2988,0,35,15.7012,35,35v125c0,19.2988-15.7012,35-35,35h-.1973c-8.1621,0-14.8027,6.6406-14.8027,14.8027v.1973c0,19.2988-15.7012,35-35,35h-125c-19.2988,0-35-15.7012-35-35v-.1973c0-8.1621-6.6406-14.8027-14.8027-14.8027h-.1973c-19.2988,0-35-15.7012-35-35v-125c0-19.2988,15.7012-35,35-35h.1973c8.1621,0,14.8027-6.6406,14.8027-14.8027v-.1973c0-19.2988,15.7012-35,35-35h125m0-7h-125c-23.1589,0-42,18.8411-42,42v.1973c0,4.3024-3.5002,7.8027-7.8027,7.8027h-.1973c-23.1589,0-42,18.8411-42,42v125c0,23.1589,18.8411,42,42,42h.1973c4.3025,0,7.8027,3.5003,7.8027,7.8027v.1973c0,23.1589,18.8411,42,42,42h125c23.1589,0,42-18.8411,42-42v-.1973c0-4.3024,3.5002-7.8027,7.8027-7.8027h.1973c23.1589,0,42-18.8411,42-42v-125c0-23.1589-18.8411-42-42-42h-.1973c-4.3025,0-7.8027-3.5003-7.8027-7.8027v-.1973c0-23.1589-18.8411-42-42-42h0Z" fill="#161615" stroke-width="0"/></svg>